<svg xmlns="http://www.w3.org/2000/svg" width="338" height="158" viewBox="0 0 338 158">
  <path fill="#158E8D" fill-rule="evenodd" d="M307.5453,69.482 C324.2943,69.482 337.9203,83.108 337.9203,99.857 C337.9203,100.201667 337.914078,100.545 337.902522,100.887 L337.8813,101.399 L337.9203,101.399 L337.9203,130.216 L337.8733,130.216 C337.0133,146.2 323.7393,158.94 307.5453,158.94 C292.88142,158.94 280.618785,148.493114 277.791092,134.652446 L277.7083,134.232 L287.9883,134.232 C290.4513,142.715 298.2783,148.94 307.5453,148.94 C318.663486,148.94 327.731603,139.987482 327.917393,128.911799 L327.9203,128.565 L327.9203,122.365 C322.5273,127.251 315.3783,130.232 307.5453,130.232 C290.7963,130.232 277.1703,116.606 277.1703,99.857 C277.1703,83.108 290.7963,69.482 307.5453,69.482 Z M66.7162,1 C96.1272,1 120.0552,24.928 120.0552,54.339 L120.0552,54.339 L120.0552,55.039 L133.7892,55.039 L133.7892,68.625 L13.8842,68.625 C16.7362,95.959 39.9082,117.338 67.9852,117.338 C91.2812,117.338 111.1982,102.613 118.9342,81.984 L118.9342,81.984 L133.2492,81.984 C124.9942,110.231 98.8622,130.924 67.9852,130.924 C30.4972,130.924 0.0002,100.427 0.0002,62.94 C0.0002,60.268 0.1602,57.632 0.4612,55.039 L0.4612,55.039 L13.3762,55.039 L13.3762,54.339 C13.3762,24.928 37.3052,1 66.7162,1 Z M153.3363,55.1285 L153.3363,77.3505 C158.7303,72.4635 165.8783,69.4825 173.7113,69.4825 C190.4613,69.4825 204.0863,83.1085 204.0863,99.8575 C204.0863,116.6065 190.4613,130.2325 173.7113,130.2325 C157.37927,130.2325 144.025764,117.272638 143.372207,101.098596 L143.3563,100.6075 L143.3363,100.6075 L143.3363,55.1285 L153.3363,55.1285 Z M240.0453,69.482 C256.7943,69.482 270.4203,83.108 270.4203,99.857 C270.4203,100.201667 270.414078,100.545 270.402522,100.887 L270.3813,101.399 L270.4203,101.399 L270.4203,130.216 L260.4203,130.216 L260.4203,122.365 C255.0273,127.251 247.8783,130.232 240.0453,130.232 C223.2963,130.232 209.6703,116.606 209.6703,99.857 C209.6703,83.108 223.2963,69.482 240.0453,69.482 Z M173.7113,79.4825 C162.4773,79.4825 153.3363,88.6225 153.3363,99.8575 C153.3363,111.0925 162.4773,120.2325 173.7113,120.2325 C184.9463,120.2325 194.0863,111.0925 194.0863,99.8575 C194.0863,88.6225 184.9463,79.4825 173.7113,79.4825 Z M240.0453,79.482 C228.8113,79.482 219.6703,88.623 219.6703,99.857 C219.6703,111.092 228.8113,120.232 240.0453,120.232 C251.2793,120.232 260.4203,111.092 260.4203,99.857 C260.4203,88.623 251.2793,79.482 240.0453,79.482 Z M307.5453,79.482 C296.3113,79.482 287.1703,88.623 287.1703,99.857 C287.1703,111.092 296.3113,120.232 307.5453,120.232 C318.7793,120.232 327.9203,111.092 327.9203,99.857 C327.9203,88.623 318.7793,79.482 307.5453,79.482 Z M66.7162,14.586 C44.7962,14.586 26.9632,32.419 26.9632,54.339 L26.9632,54.339 L26.9632,55.039 L106.4692,55.039 L106.4692,54.339 C106.4692,32.419 88.6362,14.586 66.7162,14.586 Z" transform="translate(0 -1)"/>
</svg>
